<svg id="Layer_1" data-name="Layer 1" xmlns="http://www.w3.org/2000/svg" viewBox="0 0 92.53 122.88"><defs><style>.cls-1{fill-rule:evenodd;}</style></defs><title>location-setting</title><path class="cls-1" d="M46.27,18.21A28.62,28.62,0,1,1,17.64,46.83,28.62,28.62,0,0,1,46.27,18.21Zm1.36,97.49A82.87,82.87,0,0,0,64,101.81,85.44,85.44,0,0,0,84.56,62.23c2.81-13.67,1.5-27-4.75-37.34a36.74,36.74,0,0,0-6.63-8.06C65.62,9.93,57,6.64,48.23,6.56,39.07,6.49,29.77,10,21.55,16.5a38.54,38.54,0,0,0-8.63,9.56C7.15,35.15,5.41,46.43,7.31,58.24c1.94,12,7.66,24.61,16.77,36A102.46,102.46,0,0,0,47.63,115.7Zm21.24-9.46a89.32,89.32,0,0,1-19.33,16,3.28,3.28,0,0,1-3.71.13,109.25,109.25,0,0,1-26.9-24c-9.8-12.31-16-26-18.1-39.1C-1.33,45.89.7,33,7.36,22.53a45.3,45.3,0,0,1,10.1-11.18C26.85,3.87,37.6-.09,48.29,0,58.6.09,68.79,3.92,77.6,12a43.1,43.1,0,0,1,7.82,9.52c7.15,11.8,8.71,26.83,5.57,42.05a92.2,92.2,0,0,1-22.12,42.7Zm-11-72.83a1.68,1.68,0,0,0-1.23-.52,1.64,1.64,0,0,0-1.22.52l-1.87,1.86a12.65,12.65,0,0,0-1.58-.86,17.56,17.56,0,0,0-1.7-.66V30.89a1.71,1.71,0,0,0-1.72-1.73H44.92a1.71,1.71,0,0,0-1.21.5,1.68,1.68,0,0,0-.51,1.23v2.62a12.55,12.55,0,0,0-1.74.54,11.29,11.29,0,0,0-1.61.74l-2.07-2a1.58,1.58,0,0,0-1.19-.52,1.7,1.7,0,0,0-1.23.52l-2.51,2.52a1.7,1.7,0,0,0,0,2.45l1.86,1.87a11.47,11.47,0,0,0-.86,1.58,15.15,15.15,0,0,0-.66,1.69H30.33a1.71,1.71,0,0,0-1.73,1.73v3.59a1.71,1.71,0,0,0,.5,1.21,1.66,1.66,0,0,0,1.23.51H33a12.52,12.52,0,0,0,.53,1.74,17.41,17.41,0,0,0,.74,1.64l-2,2a1.57,1.57,0,0,0-.52,1.2,1.68,1.68,0,0,0,.52,1.23l2.52,2.55a1.72,1.72,0,0,0,1.22.48,1.76,1.76,0,0,0,1.23-.48L39,58.39a12.1,12.1,0,0,0,1.59.86,17.38,17.38,0,0,0,1.69.66v2.86A1.71,1.71,0,0,0,44,64.5h3.59a1.71,1.71,0,0,0,1.21-.5,1.68,1.68,0,0,0,.51-1.23V60.15a12.69,12.69,0,0,0,1.75-.54,14.19,14.19,0,0,0,1.64-.74l2,2a1.63,1.63,0,0,0,1.21.52,1.59,1.59,0,0,0,1.21-.52l2.55-2.52a1.71,1.71,0,0,0,.49-1.23,1.69,1.69,0,0,0-.49-1.22l-1.89-1.87a14.1,14.1,0,0,0,.86-1.58,17.38,17.38,0,0,0,.66-1.69h2.86a1.71,1.71,0,0,0,1.72-1.73V45.48a1.67,1.67,0,0,0-.5-1.21,1.64,1.64,0,0,0-1.22-.51H59.59A13.67,13.67,0,0,0,59.05,42a14.35,14.35,0,0,0-.74-1.63l2-2.07a1.57,1.57,0,0,0,.52-1.19,1.72,1.72,0,0,0-.52-1.23l-2.52-2.51ZM46.27,39.79a7.06,7.06,0,0,1,2.74.55,7.27,7.27,0,0,1,2.25,1.5,7.64,7.64,0,0,1,1.5,2.25,7.22,7.22,0,0,1,0,5.48,7.64,7.64,0,0,1-1.5,2.25A7.27,7.27,0,0,1,49,53.32a7.13,7.13,0,0,1-5.49,0,6.92,6.92,0,0,1-3.74-3.75,7.1,7.1,0,0,1,0-5.48,6.92,6.92,0,0,1,3.74-3.75,7.11,7.11,0,0,1,2.75-.55Z"/></svg>